<?xml version="1.0"?>
<svg xmlns="http://www.w3.org/2000/svg" xmlns:xlink="http://www.w3.org/1999/xlink" xmlns:svgjs="http://svgjs.com/svgjs" version="1.1" width="512" height="512" x="0" y="0" viewBox="0 0 511.227 511.227" style="enable-background:new 0 0 512 512" xml:space="preserve"><g><g xmlns="http://www.w3.org/2000/svg"><circle cx="255.225" cy="426.168" r="7.5" fill="#ffffff" data-original="#000000" style=""/><circle cx="255.225" cy="449.664" r="7.5" fill="#ffffff" data-original="#000000" style=""/><circle cx="255.225" cy="473.16" r="7.5" fill="#ffffff" data-original="#000000" style=""/><path d="m425.32 400.387c-5.764-13.44-16.872-24.225-30.478-29.59l-83.296-32.845c-1.701-.671-2.8-2.285-2.8-4.113v-25.747c11.747-8.84 21.409-19.509 28.788-31.821.245-.408.441-.832.6-1.262 1.227-.393 2.435-.829 3.614-1.331 18.461-7.859 23.392-26.14 23.593-26.915.747-2.878-.277-5.926-2.611-7.769-2.333-1.844-5.537-2.133-8.162-.74-.175.093-1.132.588-2.638 1.198.391-1.754.759-3.523 1.09-5.318 18.285-.88 32.891-16.03 32.891-34.529 0-16.487-11.604-30.307-27.072-33.743v-87.63c6.085-8.379 9.408-18.557 9.408-28.955 0-27.172-22.105-49.277-49.276-49.277-11.988 0-23.376 4.309-32.27 12.031-8.893-7.722-20.282-12.031-32.27-12.031-11.378 0-22.357 3.96-31.088 11.054-8.729-7.093-19.71-11.054-31.088-11.054-27.171 0-49.275 22.105-49.275 49.276 0 10.458 3.355 20.681 9.499 29.085v87.755c-14.917 3.832-25.974 17.393-25.974 33.489 0 18.107 13.996 32.997 31.736 34.446.303 1.649.636 3.277.989 4.89-.944-.403-1.491-.682-1.501-.687-2.626-1.393-5.83-1.103-8.162.74-2.334 1.843-3.358 4.891-2.611 7.769.201.774 5.132 19.056 23.593 26.915.72.306 1.45.589 2.187.855 7.501 13.036 17.476 24.273 29.744 33.516v25.791c0 1.828-1.099 3.443-2.799 4.113l-5.943 2.344c-.012.005-.024.009-.036.014l-77.317 30.487c-13.605 5.365-24.714 16.15-30.477 29.59-12.939 30.169-19.498 62.111-19.498 94.939v8.401c0 4.142 3.357 7.5 7.5 7.5h107.746c4.143 0 7.5-3.358 7.5-7.5s-3.357-7.5-7.5-7.5h-29.266c.218-7.647 1.531-18.838 3.706-27.714.986-4.023-1.476-8.083-5.498-9.07-4.025-.988-8.084 1.475-9.07 5.499-2.355 9.605-3.923 22.01-4.137 31.285h-55.983v-.901c0-30.784 6.151-60.736 18.285-89.027 4.196-9.787 12.285-17.641 22.192-21.548l74.071-29.207 50.898 28.038-16.819 10.836c-12.988 8.37-20.743 22.591-20.743 38.042v63.766h-7.639c-4.143 0-7.5 3.358-7.5 7.5s3.357 7.5 7.5 7.5h235.664c4.143 0 7.5-3.358 7.5-7.5v-8.401c.001-32.827-6.558-64.769-19.497-94.939zm-89.447-140.512c-11.777 5.014-28.939 1.522-49.624-10.103-5.802-3.26-10.778-5.454-15.661-6.904-4.086-1.213-6.939-5.042-6.939-9.311 0-5.355 4.356-9.711 9.711-9.711.045 0 .113-.001.205-.001 1.653 0 21.321.389 34.652 18.295 9.085 12.202 21.459 15.513 32.526 14.969-1.432 1.045-3.05 1.992-4.87 2.766zm-159.275.073c-1.902-.794-3.582-1.766-5.064-2.841 11.097.548 23.458-2.76 32.546-14.968 13.333-17.907 33.001-18.295 34.652-18.295.114-.001.145.001.205.001 5.355 0 9.711 4.356 9.711 9.711 0 4.27-2.854 8.099-6.939 9.311-4.882 1.45-9.857 3.643-15.66 6.904-20.579 11.567-37.681 15.086-49.451 10.177zm62.397-51.102c-2.182-.02-28.959.176-46.946 24.336-4.22 5.668-9.679 8.614-16.59 8.953-5.128-18.617-6.251-40.274-3.362-64.394h167.081c2.892 24.134 1.761 45.752-3.365 64.369-5.426-.554-11.085-2.91-15.566-8.927-17.983-24.155-44.736-24.362-46.946-24.337-6.664.015-12.713 2.687-17.153 7.004-4.44-4.318-10.489-6.989-17.153-7.004zm131.916-9.242c0 9.519-6.834 17.463-15.852 19.207 1.045-12.075.885-24.927-.498-38.49 9.261 1.544 16.35 9.591 16.35 19.283zm-178.656-184.604c9.712 0 19.009 4.151 25.508 11.388 1.422 1.584 3.451 2.489 5.58 2.489s4.157-.905 5.58-2.489c6.5-7.237 15.797-11.388 25.508-11.388 10.283 0 19.935 4.561 26.479 12.512 1.425 1.731 3.549 2.734 5.791 2.734s4.366-1.003 5.791-2.734c6.545-7.951 16.196-12.512 26.479-12.512 18.9 0 34.276 15.376 34.276 34.276 0 7.991-2.668 15.481-7.717 21.661-1.094 1.339-1.691 3.015-1.691 4.745v54.663h-108.657c-4.143 0-7.5 3.358-7.5 7.5s3.357 7.5 7.5 7.5h108.657v17.396h-176.36v-17.396h37.703c4.143 0 7.5-3.358 7.5-7.5s-3.357-7.5-7.5-7.5h-37.703v-1.507-53.04c0-1.738-.604-3.422-1.708-4.765-5.024-6.107-7.791-13.834-7.791-21.757 0-18.9 15.375-34.276 34.275-34.276zm-50.75 184.604c0-9.285 6.505-17.063 15.193-19.06-1.351 13.368-1.517 26.059-.505 37.99-8.432-2.178-14.688-9.827-14.688-18.93zm50.802 77.376c12.119-.86 25.856-5.569 41.091-14.132 4.801-2.698 8.798-4.478 12.58-5.6 3.905-1.159 7.367-3.256 10.17-5.998 2.802 2.741 6.265 4.838 10.17 5.998 3.783 1.123 7.781 2.902 12.581 5.6 14.83 8.335 28.242 13.03 40.122 14.067-7.078 9.376-15.911 17.457-26.374 24.087-22.482 14.247-51.536 14.247-74.02 0-10.437-6.614-19.245-14.668-26.32-24.022zm19.766 70.316c3.406-3.534 5.406-8.299 5.406-13.458v-16.266c11.942 6.061 25.048 9.104 38.158 9.104 13.093 0 26.181-3.034 38.109-9.079v16.241c0 5.944 2.65 11.37 7.055 14.985l-39.618 25.526zm217.745 148.931h-65.598c-.214-9.275-1.783-21.68-4.137-31.285-.986-4.023-5.04-6.485-9.07-5.499-4.022.986-6.484 5.047-5.498 9.07 2.176 8.876 3.488 20.066 3.706 27.714h-124.928v-63.766c0-10.33 5.185-19.837 13.868-25.433l78.844-50.8 72.336 28.523c9.907 3.907 17.997 11.761 22.194 21.548 12.132 28.29 18.283 58.244 18.283 89.026z" fill="#ffffff" data-original="#000000" style=""/><path d="m215.788 87.362c4.143 0 7.5-3.358 7.5-7.5v-17.229c0-4.142-3.357-7.5-7.5-7.5s-7.5 3.358-7.5 7.5v17.229c0 4.142 3.357 7.5 7.5 7.5z" fill="#ffffff" data-original="#000000" style=""/><path d="m255.613 87.362c4.143 0 7.5-3.358 7.5-7.5v-17.229c0-4.142-3.357-7.5-7.5-7.5s-7.5 3.358-7.5 7.5v17.229c0 4.142 3.358 7.5 7.5 7.5z" fill="#ffffff" data-original="#000000" style=""/><path d="m295.439 87.362c4.143 0 7.5-3.358 7.5-7.5v-17.229c0-4.142-3.357-7.5-7.5-7.5s-7.5 3.358-7.5 7.5v17.229c0 4.142 3.357 7.5 7.5 7.5z" fill="#ffffff" data-original="#000000" style=""/></g></g></svg>
